<svg xmlns="http://www.w3.org/2000/svg" width="1400" height="760" viewBox="0 0 1400 760">
<defs><style>.bg{fill:#f6f8fb}.title{font:700 32px Segoe UI,Arial;fill:#102a43}.cluster{fill:#fff;stroke:#ccd8e3;stroke-width:2;rx:18}.h{font:700 19px Segoe UI,Arial;fill:#17324d}.t{font:500 14px Consolas,monospace;fill:#465567}.arrow{stroke:#5f7388;stroke-width:2.5;fill:none;marker-end:url(#m)}</style><marker id="m" markerWidth="10" markerHeight="10" refX="8" refY="3" orient="auto"><path d="M0,0 L0,6 L9,3 z" fill="#5f7388"/></marker></defs>
<rect class="bg" width="1400" height="760"/><text class="title" x="55" y="62">Operational Data Backbone: PostgreSQL as the System of Record</text>
<rect class="cluster" x="60" y="120" width="300" height="235"/><text class="h" x="90" y="160">Imaging Intake</text><text class="t" x="90" y="195">studies</text><text class="t" x="90" y="220">series</text><text class="t" x="90" y="245">instances</text><text class="t" x="90" y="270">order_context</text><text class="t" x="90" y="295">study_artifacts</text>
<rect class="cluster" x="430" y="120" width="300" height="235"/><text class="h" x="460" y="160">Model Lineage</text><text class="t" x="460" y="195">model_services</text><text class="t" x="460" y="220">model_versions</text><text class="t" x="460" y="245">prompt_versions</text><text class="t" x="460" y="270">model_runs</text><text class="t" x="460" y="295">agent_runs</text>
<rect class="cluster" x="800" y="120" width="300" height="235"/><text class="h" x="830" y="160">Clinical Output</text><text class="t" x="830" y="195">findings</text><text class="t" x="830" y="220">urgency_scores</text><text class="t" x="830" y="245">report_drafts</text><text class="t" x="830" y="270">final_reports</text><text class="t" x="830" y="295">report_revisions</text>
<rect class="cluster" x="240" y="445" width="300" height="215"/><text class="h" x="270" y="485">Feedback</text><text class="t" x="270" y="520">feedback_events</text><text class="t" x="270" y="545">discrepancy_events</text><text class="t" x="270" y="570">audit_events</text><text class="t" x="270" y="595">append-only pattern</text>
<rect class="cluster" x="660" y="445" width="300" height="215"/><text class="h" x="690" y="485">Monitoring</text><text class="t" x="690" y="520">drift_snapshots</text><text class="t" x="690" y="545">governance_snapshots</text><text class="t" x="690" y="570">dashboard_fact_daily</text><text class="t" x="690" y="595">Power BI marts</text>
<line class="arrow" x1="360" y1="238" x2="430" y2="238"/><line class="arrow" x1="730" y1="238" x2="800" y2="238"/><line class="arrow" x1="950" y1="355" x2="540" y2="510"/><line class="arrow" x1="540" y1="555" x2="660" y2="555"/><line class="arrow" x1="580" y1="355" x2="740" y2="445"/>
</svg>