<svg xmlns="http://www.w3.org/2000/svg" width="1400" height="560" viewBox="0 0 1400 560">
<defs><style>.bg{fill:#fbfcfe}.title{font:700 32px Segoe UI,Arial;fill:#102a43}.box{fill:#fff;stroke:#ccd8e3;stroke-width:2;rx:16}.cxr{fill:#eef3ff;stroke:#5b6ee1}.mri{fill:#e9f5f2;stroke:#2a9d8f}.agent{fill:#fff4e8;stroke:#d27b3f}.h{font:700 18px Segoe UI,Arial;fill:#17324d}.t{font:500 13px Segoe UI,Arial;fill:#506070}.arrow{stroke:#506f8f;stroke-width:3;fill:none;marker-end:url(#m)}</style><marker id="m" markerWidth="10" markerHeight="10" refX="8" refY="3" orient="auto"><path d="M0,0 L0,6 L9,3 z" fill="#506f8f"/></marker></defs>
<rect class="bg" width="1400" height="560"/><text class="title" x="55" y="62">Inspectable AI Orchestration: Specialist Services Before Narrative</text>
<rect class="box" x="60" y="130" width="170" height="90"/><text class="h" x="86" y="166">Study Context</text><text class="t" x="86" y="194">metadata, artifacts</text>
<rect class="box" x="285" y="90" width="170" height="95"/><text class="h" x="312" y="126">View Quality</text><text class="t" x="312" y="153">stub QC gate</text>
<rect class="box cxr" x="285" y="235" width="220" height="110"/><text class="h" x="312" y="272">Chest CNN Ensemble</text><text class="t" x="312" y="300">ChestMNIST baseline</text><text class="t" x="312" y="322">cardiomegaly + infiltration</text>
<rect class="box mri" x="555" y="235" width="250" height="110"/><text class="h" x="582" y="272">Brain MRI Bundle</text><text class="t" x="582" y="300">context classifier + U-Net mask</text><text class="t" x="582" y="322">3D patient-volume corroboration</text>
<rect class="box" x="855" y="235" width="190" height="110"/><text class="h" x="882" y="272">Urgency Layer</text><text class="t" x="882" y="300">tier + rationale</text><text class="t" x="882" y="322">threshold config</text>
<rect class="box agent" x="1095" y="90" width="220" height="95"/><text class="h" x="1122" y="126">Explanation Agent</text><text class="t" x="1122" y="153">evidence checklist</text>
<rect class="box agent" x="1095" y="235" width="220" height="95"/><text class="h" x="1122" y="271">Report Agent</text><text class="t" x="1122" y="298">structured draft text</text>
<rect class="box agent" x="1095" y="380" width="220" height="95"/><text class="h" x="1122" y="416">Discrepancy Agent</text><text class="t" x="1122" y="443">AI vs final report</text>
<line class="arrow" x1="230" y1="175" x2="285" y2="140"/><line class="arrow" x1="230" y1="175" x2="285" y2="290"/><line class="arrow" x1="505" y1="290" x2="555" y2="290"/><line class="arrow" x1="805" y1="290" x2="855" y2="290"/><line class="arrow" x1="1045" y1="290" x2="1095" y2="137"/><line class="arrow" x1="1045" y1="290" x2="1095" y2="282"/><line class="arrow" x1="1045" y1="290" x2="1095" y2="427"/>
</svg>