<svg xmlns="http://www.w3.org/2000/svg" viewBox="0 0 600 450" width="600" height="450">
  <defs>
    <linearGradient id="bg" x1="0" y1="0" x2="0.3" y2="1">
      <stop offset="0%" stop-color="#0a0a0f"/>
      <stop offset="100%" stop-color="#0e1726"/>
    </linearGradient>
  </defs>

  <rect width="600" height="450" fill="url(#bg)" rx="12"/>
  <rect width="600" height="450" fill="none" stroke="#1e3050" stroke-width="1" rx="12"/>

  <!-- Header -->
  <text x="30" y="38" fill="#FFB347" font-size="14" font-weight="700" font-family="sans-serif">Discovery Feed</text>
  <text x="30" y="55" fill="#8a9fc0" font-size="10" font-family="sans-serif">4 insights surfaced from 6 sources</text>

  <!-- Discovery 1: Urgent -->
  <g transform="translate(20, 72)">
    <rect x="0" y="0" width="560" height="82" rx="8" fill="#111118" stroke="#1e1e2e" stroke-width="1"/>
    <rect x="0" y="0" width="3" height="82" rx="1.5" fill="#EF4444"/>
    <circle cx="24" cy="18" r="4" fill="#EF4444"/>
    <text x="35" y="22" fill="#e8f0ff" font-size="11" font-weight="600" font-family="sans-serif">CloudScale Inc activity spike — 3 signals in 24 hours</text>
    <text x="24" y="42" fill="#8a9fc0" font-size="9.5" font-family="sans-serif">CloudScale Inc appeared in a production issue report, 3 new enterprise</text>
    <text x="24" y="55" fill="#8a9fc0" font-size="9.5" font-family="sans-serif">orders, and an expedited onboarding request all within the same day.</text>
    <rect x="24" y="64" width="42" height="14" rx="4" fill="#152035"/><text x="45" y="74" fill="#A855F7" font-size="8" font-family="sans-serif" text-anchor="middle">anomaly</text>
    <rect x="72" y="64" width="42" height="14" rx="4" fill="#152035"/><text x="93" y="74" fill="#A855F7" font-size="8" font-family="sans-serif" text-anchor="middle">github</text>
    <rect x="120" y="64" width="45" height="14" rx="4" fill="#152035"/><text x="143" y="74" fill="#96BF48" font-size="8" font-family="sans-serif" text-anchor="middle">shopify</text>
    <rect x="171" y="64" width="38" height="14" rx="4" fill="#152035"/><text x="190" y="74" fill="#EA4335" font-size="8" font-family="sans-serif" text-anchor="middle">gmail</text>
    <text x="500" y="22" fill="#8a9fc0" font-size="9" font-family="monospace">92%</text>
    <rect x="524" y="16" width="24" height="4" rx="2" fill="#1e3050"/><rect x="524" y="16" width="22" height="4" rx="2" fill="#22C55E"/>
  </g>

  <!-- Discovery 2: Important -->
  <g transform="translate(20, 164)">
    <rect x="0" y="0" width="560" height="82" rx="8" fill="#111118" stroke="#1e1e2e" stroke-width="1"/>
    <rect x="0" y="0" width="3" height="82" rx="1.5" fill="#FBBF24"/>
    <circle cx="24" cy="18" r="4" fill="#FBBF24"/>
    <text x="35" y="22" fill="#e8f0ff" font-size="11" font-weight="600" font-family="sans-serif">Nexus AI contract renewal coincides with Series B timeline</text>
    <text x="24" y="42" fill="#8a9fc0" font-size="9.5" font-family="sans-serif">Sarah Chen sent a contract renewal for Project Aurora the same week as</text>
    <text x="24" y="55" fill="#8a9fc0" font-size="9.5" font-family="sans-serif">the Series B board meeting. Timing suggests strategic positioning.</text>
    <rect x="24" y="64" width="55" height="14" rx="4" fill="#152035"/><text x="52" y="74" fill="#3bc8ff" font-size="8" font-family="sans-serif" text-anchor="middle">connection</text>
    <rect x="85" y="64" width="38" height="14" rx="4" fill="#152035"/><text x="104" y="74" fill="#EA4335" font-size="8" font-family="sans-serif" text-anchor="middle">gmail</text>
    <rect x="129" y="64" width="50" height="14" rx="4" fill="#152035"/><text x="154" y="74" fill="#4285F4" font-size="8" font-family="sans-serif" text-anchor="middle">calendar</text>
    <text x="500" y="22" fill="#8a9fc0" font-size="9" font-family="monospace">85%</text>
    <rect x="524" y="16" width="24" height="4" rx="2" fill="#1e3050"/><rect x="524" y="16" width="20" height="4" rx="2" fill="#FFB347"/>
  </g>

  <!-- Discovery 3: Interesting -->
  <g transform="translate(20, 256)">
    <rect x="0" y="0" width="560" height="82" rx="8" fill="#111118" stroke="#1e1e2e" stroke-width="1"/>
    <rect x="0" y="0" width="3" height="82" rx="1.5" fill="#22C55E"/>
    <circle cx="24" cy="18" r="4" fill="#22C55E"/>
    <text x="35" y="22" fill="#e8f0ff" font-size="11" font-weight="600" font-family="sans-serif">Apex Corp deal likely closing this week</text>
    <text x="24" y="42" fill="#8a9fc0" font-size="9.5" font-family="sans-serif">Three converging signals: partnership terms email, #deals discussion,</text>
    <text x="24" y="55" fill="#8a9fc0" font-size="9.5" font-family="sans-serif">and dinner meeting in San Francisco. Deal appears in final stages.</text>
    <rect x="24" y="64" width="40" height="14" rx="4" fill="#152035"/><text x="44" y="74" fill="#60e5bf" font-size="8" font-family="sans-serif" text-anchor="middle">insight</text>
    <rect x="70" y="64" width="38" height="14" rx="4" fill="#152035"/><text x="89" y="74" fill="#EA4335" font-size="8" font-family="sans-serif" text-anchor="middle">gmail</text>
    <rect x="114" y="64" width="36" height="14" rx="4" fill="#152035"/><text x="132" y="74" fill="#E01E5A" font-size="8" font-family="sans-serif" text-anchor="middle">slack</text>
    <rect x="156" y="64" width="50" height="14" rx="4" fill="#152035"/><text x="181" y="74" fill="#4285F4" font-size="8" font-family="sans-serif" text-anchor="middle">calendar</text>
    <text x="500" y="22" fill="#8a9fc0" font-size="9" font-family="monospace">88%</text>
    <rect x="524" y="16" width="24" height="4" rx="2" fill="#1e3050"/><rect x="524" y="16" width="21" height="4" rx="2" fill="#22C55E"/>
  </g>

  <!-- Discovery 4: Interesting -->
  <g transform="translate(20, 348)">
    <rect x="0" y="0" width="560" height="82" rx="8" fill="#111118" stroke="#1e1e2e" stroke-width="1"/>
    <rect x="0" y="0" width="3" height="82" rx="1.5" fill="#22C55E"/>
    <circle cx="24" cy="18" r="4" fill="#22C55E"/>
    <text x="35" y="22" fill="#e8f0ff" font-size="11" font-weight="600" font-family="sans-serif">James Park is the bridge between Project Aurora and API Migration</text>
    <text x="24" y="42" fill="#8a9fc0" font-size="9.5" font-family="sans-serif">James Park appears in both Aurora discussions and API migration work.</text>
    <text x="24" y="55" fill="#8a9fc0" font-size="9.5" font-family="sans-serif">Single point of dependency could become a bottleneck.</text>
    <rect x="24" y="64" width="42" height="14" rx="4" fill="#152035"/><text x="45" y="74" fill="#60e5bf" font-size="8" font-family="sans-serif" text-anchor="middle">pattern</text>
    <rect x="72" y="64" width="42" height="14" rx="4" fill="#152035"/><text x="93" y="74" fill="#A855F7" font-size="8" font-family="sans-serif" text-anchor="middle">github</text>
    <rect x="120" y="64" width="36" height="14" rx="4" fill="#152035"/><text x="138" y="74" fill="#E01E5A" font-size="8" font-family="sans-serif" text-anchor="middle">slack</text>
    <text x="500" y="22" fill="#8a9fc0" font-size="9" font-family="monospace">78%</text>
    <rect x="524" y="16" width="24" height="4" rx="2" fill="#1e3050"/><rect x="524" y="16" width="19" height="4" rx="2" fill="#FBBF24"/>
  </g>
</svg>